<svg xmlns="http://www.w3.org/2000/svg" viewBox="0 0 200 97">
  <g fill="none" fill-rule="evenodd">
    <path fill="#000" fill-rule="nonzero" d="M113.895 15.346C113.895 15.346 100.152 32.268 100.855 33.347 101.83 32.268 95.921 15.161 95.921 15.161 95.921 15.161 94.688 11.564 90.819-.226L76.81-.226 42.812-.226 17.175-.226 14.615 10.842 33.914 10.842 38.493 10.842C50.908 10.842 58.488 15.974 56.371 25.067 54.084 34.968 43.248 39.195 31.706 39.195L27.39 39.195 32.942 14.987 13.647 14.987 5.455 50.355 32.853 50.355C53.465 50.355 73.019 39.288 76.545 25.067 77.162 22.453 77.075 15.882 75.491 12.014 75.491 11.921 75.4 11.743 75.313 11.477 75.226 11.384 75.135 10.755 75.491 10.663 75.663 10.571 76.016 10.934 76.016 11.021 76.016 11.021 76.195 11.477 76.367 11.834L93.807 62.149 138.211 10.933 156.972 10.841 161.551 10.841C173.975 10.841 181.641 15.973 179.52 25.066 177.23 34.967 166.315 39.194 154.77 39.194L150.365 39.194 156 14.987 136.713 14.987 128.515 50.355 155.913 50.355C176.524 50.355 196.256 39.288 199.517 25.067 202.864 10.842 188.416-.226 167.627-.226L149.484-.226 126.757-.226C115.923 12.823 113.895 15.346 113.895 15.346L113.895 15.346zM94.424 62.329C42.281 62.329 0 68.449 0 76.012 0 83.57 42.281 89.69 94.424 89.69 146.663 89.69 188.948 83.57 188.948 76.012 188.948 68.449 146.664 62.329 94.424 62.329zM91.078 80.873C79.098 80.873 69.498 78.801 69.498 76.278 69.498 73.755 79.097 71.688 91.078 71.688 102.966 71.688 112.576 73.754 112.576 76.278 112.576 78.801 102.966 80.873 91.078 80.873z"/>
    <polygon fill="#000" fill-rule="nonzero" points="177.843 89.635 177.843 88.653 172.098 88.653 171.859 89.635 174.251 89.635 173.286 97.226 174.49 97.226 175.445 89.635"/>
    <polygon fill="#000" fill-rule="nonzero" points="186.453 97.226 186.453 88.653 185.504 88.653 182.384 94.534 180.968 88.653 180.013 88.653 177.36 97.226 178.337 97.226 180.475 90.617 181.917 97.226 185.276 90.617 185.504 97.226"/>
  </g>
</svg>
